<svg xmlns="http://www.w3.org/2000/svg" width="379.888916015625" height="354.902587890625" viewBox="-73.57978820800781 -79.36955261230469 379.888916015625 354.902587890625"><title>Neo4j Graph Visualization</title><desc>Created using Neo4j (http://www.neo4j.com/)</desc><g class="layer relationships"><g class="relationship" transform="translate(22.523418267706568 -40.97876257910972) rotate(389.3339568850901)"><path class="outline" fill="#A5ABB6" stroke="none" d="M 24.018736134675446,-6.953439040707552 L 24.277555179777966,-5.987513214418485 A 168.0438123777647 168.0438123777647 0 0 1 54.713582547400485,-11.20544192030249 L 54.63588309805673,-12.20241874830387 A 169.0438123777647 169.0438123777647 0 0 0 24.018736134675446,-6.953439040707552 Z M 76.6954978025747,-12.47769621133898 L 76.64270081792169,-11.479090944773873 A 168.0438123777647 168.0438123777647 0 0 1 107.19945731629038,-7.022278832763984 L 106.49555225980055,-4.1060282139988455 L 114.12135960282401,-5.865875470748573 L 108.13799739161016,-10.910612991117501 L 107.43409233512033,-7.994362372352363 A 169.0438123777647 169.0438123777647 0 0 0 76.6954978025747,-12.47769621133898"/><text text-anchor="middle" pointer-events="none" font-size="8px" fill="#000000" x="65.66743388222875" y="-9.200345947170547" font-family="sans-serif">road</text></g><g class="relationship" transform="translate(143.1980847952435 26.8347747146643) rotate(379.1949898054727)"><path class="outline" fill="#A5ABB6" stroke="none" d="M 21.40063509461097,-12.933012701892217 L 21.90063509461097,-12.06698729810778 A 95.39482122090995 95.39482122090995 0 0 1 44.53011392171919,-21.49487117230491 L 44.26733307615007,-22.459726719628947 A 96.39482122090995 96.39482122090995 0 0 0 21.40063509461097,-12.933012701892217 Z M 90.50595992785483,-23.552705485099978 L 90.28906119867027,-22.57651137464954 A 95.39482122090995 95.39482122090995 0 0 1 113.33872563875624,-14.228381312694225 L 111.96315788652791,-11.562333046246392 L 119.78876621917257,-11.463064601902751 L 115.1728159750607,-17.783112334624665 L 113.79724822283237,-15.117064068176834 A 96.39482122090995 96.39482122090995 0 0 0 90.50595992785483,-23.552705485099978"/><text text-anchor="middle" pointer-events="none" font-size="8px" fill="#000000" x="67.33193744441449" y="-22.32069080135618" font-family="sans-serif">twowheeler</text></g><g class="relationship" transform="translate(277.3091231316688 73.52403044385592) rotate(203.42190652143313)"><path class="outline" fill="#A5ABB6" stroke="none" d="M 21.40063509461097,12.933012701892217 L 21.90063509461097,12.06698729810778 A 34.07017083288704 34.07017083288704 0 0 0 22.43693397949086,12.37018783093291 L 21.95267498905346,13.245112530653149 A 35.07017083288704 35.07017083288704 0 0 1 21.40063509461097,12.933012701892217 Z M 53.449893803665674,14.487137404924997 L 53.036032880039926,13.576797283928649 A 34.07017083288704 34.07017083288704 0 0 0 53.59454151279658,13.316768123707801 L 52.30378006575455,10.608644255264931 L 60.128624113670284,10.756345392016886 L 55.31555677551928,16.927599948298294 L 54.02479532847725,14.219476079855424 A 35.07017083288704 35.07017083288704 0 0 1 53.449893803665674,14.487137404924997"/><text text-anchor="middle" pointer-events="none" font-size="8px" fill="#000000" x="37.57357902225648" y="20.104678554958404" transform="rotate(180 37.57357902225648 17.104678554958404)" font-family="sans-serif">twow…</text></g><g class="relationship" transform="translate(201.42675279943523 40.6523448565081) rotate(465.64396343831515)"><path class="outline" fill="#A5ABB6" stroke="none" d="M 25 0.5 L 56.65387362827636 0.5 L 56.65387362827636 -0.5 L 25 -0.5 Z M 75.98981112827636 0.5 L 107.64368475655272 0.5 L 107.64368475655272 3.5 L 114.64368475655272 0 L 107.64368475655272 -3.5 L 107.64368475655272 -0.5 L 75.98981112827636 -0.5 Z"/><text text-anchor="middle" pointer-events="none" font-size="8px" fill="#000000" x="66.32184237827636" y="3" transform="rotate(180 66.32184237827636 0)" font-family="sans-serif">trek</text></g><g class="relationship" transform="translate(277.3091231316688 73.52403044385592) rotate(203.42190652143313)"><path class="outline" fill="#A5ABB6" stroke="none" d="M 25 0.5 L 26.84230213368044 0.5 L 26.84230213368044 -0.5 L 25 -0.5 Z M 48.85402088368044 0.5 L 50.69632301736088 0.5 L 50.69632301736088 3.5 L 57.69632301736088 0 L 50.69632301736088 -3.5 L 50.69632301736088 -0.5 L 48.85402088368044 -0.5 Z"/><text text-anchor="middle" pointer-events="none" font-size="8px" fill="#000000" x="37.84816150868044" y="3" transform="rotate(180 37.84816150868044 0)" font-family="sans-serif">road</text></g><g class="relationship" transform="translate(277.3091231316688 73.52403044385592) rotate(203.42190652143313)"><path class="outline" fill="#A5ABB6" stroke="none" d="M 21.40063509461097,-12.933012701892217 L 21.90063509461097,-12.06698729810778 A 34.07017083288704 34.07017083288704 0 0 1 28.248317092486744,-14.911870823660585 L 27.934629102162624,-15.861396939534401 A 35.07017083288704 35.07017083288704 0 0 0 21.40063509461097,-12.933012701892217 Z M 47.28049935585504,-16.62425959769312 L 47.04255415494443,-15.652981016974067 A 34.07017083288704 34.07017083288704 0 0 1 53.59454151279658,-13.316768123707801 L 52.30378006575455,-10.608644255264931 L 60.128624113670284,-10.756345392016886 L 55.31555677551928,-16.927599948298294 L 54.02479532847725,-14.219476079855424 A 35.07017083288704 35.07017083288704 0 0 0 47.28049935585504,-16.62425959769312"/><text text-anchor="middle" pointer-events="none" font-size="8px" fill="#000000" x="37.57357902225649" y="-14.104678554958404" transform="rotate(180 37.57357902225649 -17.104678554958404)" font-family="sans-serif">trek</text></g><g class="relationship" transform="translate(143.1980847952435 26.8347747146643) rotate(379.1949898054727)"><path class="outline" fill="#A5ABB6" stroke="none" d="M 25 0.5 L 57.83494880311889 0.5 L 57.83494880311889 -0.5 L 25 -0.5 Z M 77.17088630311889 0.5 L 110.00583510623778 0.5 L 110.00583510623778 3.5 L 117.00583510623778 0 L 110.00583510623778 -3.5 L 110.00583510623778 -0.5 L 77.17088630311889 -0.5 Z"/><text text-anchor="middle" pointer-events="none" font-size="8px" fill="#000000" x="67.50291755311889" y="3" font-family="sans-serif">trek</text></g><g class="relationship" transform="translate(143.1980847952435 26.8347747146643) rotate(379.1949898054727)"><path class="outline" fill="#A5ABB6" stroke="none" d="M 21.40063509461097,12.933012701892217 L 21.90063509461097,12.06698729810778 A 95.39482122090995 95.39482122090995 0 0 0 56.4371801652745,23.935258422277556 L 56.299218110612074,24.92569593745624 A 96.39482122090995 96.39482122090995 0 0 1 21.40063509461097,12.933012701892217 Z M 78.37099789136829,25.447423944083454 L 78.27998727404272,24.451574021889343 A 95.39482122090995 95.39482122090995 0 0 0 113.33872563875624,14.228381312694225 L 111.96315788652791,11.562333046246392 L 119.78876621917257,11.463064601902751 L 115.1728159750607,17.783112334624665 L 113.79724822283237,15.117064068176834 A 96.39482122090995 96.39482122090995 0 0 1 78.37099789136829,25.447423944083454"/><text text-anchor="middle" pointer-events="none" font-size="8px" fill="#000000" x="67.33193744441449" y="28.32069080135618" font-family="sans-serif">road</text></g><g class="relationship" transform="translate(22.523418267706568 -40.97876257910972) rotate(389.3339568850901)"><path class="outline" fill="#A5ABB6" stroke="none" d="M 24.018736134675446,6.953439040707552 L 24.277555179777966,5.987513214418485 A 168.0438123777647 168.0438123777647 0 0 0 56.043868923369224,11.303807548343485 L 55.97408578083347,12.301369733381506 A 169.0438123777647 169.0438123777647 0 0 1 24.018736134675446,6.953439040707552 Z M 75.3552426316919,12.543223263465933 L 75.31037409559923,11.544230363356576 A 168.0438123777647 168.0438123777647 0 0 0 107.19945731629038,7.022278832763984 L 106.49555225980055,4.1060282139988455 L 114.12135960282401,5.865875470748573 L 108.13799739161016,10.910612991117501 L 107.43409233512033,7.994362372352363 A 169.0438123777647 169.0438123777647 0 0 1 75.3552426316919,12.543223263465933"/><text text-anchor="middle" pointer-events="none" font-size="8px" fill="#000000" x="65.66743388222876" y="15.200345947170547" font-family="sans-serif">trek</text></g><g class="relationship" transform="translate(22.523418267706568 -40.97876257910972) rotate(353.75982368546784)"><path class="outline" fill="#A5ABB6" stroke="none" d="M 21.40063509461097,12.933012701892217 L 21.90063509461097,12.06698729810778 A 37.97505308775589 37.97505308775589 0 0 0 22.584323179108466,12.45235049819695 L 22.10232679013483,13.32852370083235 A 38.97505308775589 38.97505308775589 0 0 1 21.40063509461097,12.933012701892217 Z M 57.038484450249314,14.651049425507878 L 56.62410854740201,13.740943601364613 A 37.97505308775589 37.97505308775589 0 0 0 57.334974415266544,13.408371938753294 L 56.0356888496529,10.704327371999995 L 63.86095933195985,10.827379713447016 L 59.067355169418065,17.01376469442436 L 57.76806960380442,14.30972012767106 A 38.97505308775589 38.97505308775589 0 0 1 57.038484450249314,14.651049425507878"/><text text-anchor="middle" pointer-events="none" font-size="8px" fill="#000000" x="39.43271174191576" y="20.627141172264068" font-family="sans-serif">Public…</text></g><g class="relationship" transform="translate(108.40619302683972 -50.36955470926195) rotate(493.2331908317731)"><path class="outline" fill="#A5ABB6" stroke="none" d="M 24.018736134675446,-6.953439040707552 L 24.277555179777966,-5.987513214418485 A 181.94387396824558 181.94387396824558 0 0 1 46.11600752548503,-10.426203849336645 L 45.97721699175476,-11.41652560904248 A 182.94387396824558 182.94387396824558 0 0 0 24.018736134675446,-6.953439040707552 Z M 92.44029365497015,-11.969458593148545 L 92.32510970103172,-10.976114414751606 A 181.94387396824558 181.94387396824558 0 0 1 114.26300748766612,-7.058383424572451 L 113.5557303755058,-4.142948793747371 L 121.18356781161802,-5.893975934669238 L 115.2060436372132,-10.945629599005892 L 114.49876652505289,-8.030194968180812 A 182.94387396824558 182.94387396824558 0 0 0 92.44029365497015,-11.969458593148545"/><text text-anchor="middle" pointer-events="none" font-size="8px" fill="#000000" x="69.1970786819648" y="-9.674182769808311" transform="rotate(180 69.1970786819648 -12.674182769808311)" font-family="sans-serif">twowheeler</text></g><g class="relationship" transform="translate(8.757646263031068 55.622260011707986) rotate(426.391357830027)"><path class="outline" fill="#A5ABB6" stroke="none" d="M 24.018736134675446,-6.953439040707552 L 24.277555179777966,-5.987513214418485 A 116.2040627290284 116.2040627290284 0 0 1 42.976390551227794,-9.388796033420675 L 42.878485289450154,-10.383991772818831 A 117.2040627290284 117.2040627290284 0 0 0 24.018736134675446,-6.953439040707552 Z M 62.272814376605886,-10.679207924682643 L 62.20524475094729,-9.681493363453654 A 116.2040627290284 116.2040627290284 0 0 1 80.99894014647762,-6.850913485858863 L 80.31104095117308,-3.9308459015212396 L 87.92708104248283,-5.732493294204531 L 81.91613907355034,-10.74433693164236 L 81.2282398782458,-7.824269347304737 A 117.2040627290284 117.2040627290284 0 0 0 62.272814376605886,-10.679207924682643"/><text text-anchor="middle" pointer-events="none" font-size="8px" fill="#000000" x="52.577142285290904" y="-7.433552671621328" font-family="sans-serif">trek</text></g><g class="relationship" transform="translate(53.716736113624144 158.4872556453826) rotate(368.59578653917674)"><path class="outline" fill="#A5ABB6" stroke="none" d="M 24.018736134675446,6.953439040707552 L 24.277555179777966,5.987513214418485 A 114.29650441520305 114.29650441520305 0 0 0 42.49884022197919,9.316049716344097 L 42.39944236946195,10.311097487516406 A 115.29650441520305 115.29650441520305 0 0 1 24.018736134675446,6.953439040707552 Z M 61.79436599737514,10.608715359604986 L 61.72554605589865,9.611086262367351 A 114.29650441520305 114.29650441520305 0 0 0 80.0403815490081,6.843201746327469 L 79.35320267931603,3.9229645639998534 L 86.96879811938788,5.726490580767244 L 80.95662004193086,10.73685132276429 L 80.26944117223879,7.816614140436674 A 115.29650441520305 115.29650441520305 0 0 1 61.79436599737514,10.608715359604986"/><text text-anchor="middle" pointer-events="none" font-size="8px" fill="#000000" x="52.09830592597528" y="13.368558784915493" font-family="sans-serif">trek</text></g><g class="relationship" transform="translate(53.716736113624144 158.4872556453826) rotate(368.59578653917674)"><path class="outline" fill="#A5ABB6" stroke="none" d="M 24.018736134675446,-6.953439040707552 L 24.277555179777966,-5.987513214418485 A 114.29650441520305 114.29650441520305 0 0 1 29.170816368165315,-7.183737804819501 L 28.954809316425354,-8.160129608143663 A 115.29650441520305 115.29650441520305 0 0 0 24.018736134675446,-6.953439040707552 Z M 75.29866711148446,-8.871282722533422 L 75.11272045239755,-7.888722882129585 A 114.29650441520305 114.29650441520305 0 0 1 80.0403815490081,-6.843201746327469 L 79.35320267931603,-3.9229645639998534 L 86.96879811938788,-5.726490580767244 L 80.95662004193086,-10.73685132276429 L 80.26944117223879,-7.816614140436674 A 115.29650441520305 115.29650441520305 0 0 0 75.29866711148446,-8.871282722533422"/><text text-anchor="middle" pointer-events="none" font-size="8px" fill="#000000" x="52.09830592597526" y="-7.368558784915493" font-family="sans-serif">twowheeler</text></g><g class="relationship" transform="translate(8.757646263031068 55.622260011707986) rotate(426.391357830027)"><path class="outline" fill="#A5ABB6" stroke="none" d="M 24.018736134675446,6.953439040707552 L 24.277555179777966,5.987513214418485 A 116.2040627290284 116.2040627290284 0 0 0 29.64194485223588,7.289162312968557 L 29.429289336587292,8.266289547091233 A 117.2040627290284 117.2040627290284 0 0 1 24.018736134675446,6.953439040707552 Z M 75.78023479616282,8.971833301264539 L 75.59741813806315,7.988686277914894 A 116.2040627290284 116.2040627290284 0 0 0 80.99894014647762,6.850913485858863 L 80.31104095117308,3.9308459015212396 L 87.92708104248283,5.732493294204531 L 81.91613907355034,10.74433693164236 L 81.2282398782458,7.824269347304737 A 117.2040627290284 117.2040627290284 0 0 1 75.78023479616282,8.971833301264539"/><text text-anchor="middle" pointer-events="none" font-size="8px" fill="#000000" x="52.577142285290925" y="13.433552671621328" font-family="sans-serif">twowheeler</text></g><g class="relationship" transform="translate(108.40619302683972 -50.36955470926195) rotate(404.3778050266049)"><path class="outline" fill="#A5ABB6" stroke="none" d="M 25 0.5 L 51.90470358825607 0.5 L 51.90470358825607 -0.5 L 25 -0.5 Z M 71.24064108825607 0.5 L 98.14534467651214 0.5 L 98.14534467651214 3.5 L 105.14534467651214 0 L 98.14534467651214 -3.5 L 98.14534467651214 -0.5 L 71.24064108825607 -0.5 Z"/><text text-anchor="middle" pointer-events="none" font-size="8px" fill="#000000" x="61.57267233825607" y="3" font-family="sans-serif">trek</text></g><g class="relationship" transform="translate(108.40619302683972 -50.36955470926195) rotate(493.2331908317731)"><path class="outline" fill="#A5ABB6" stroke="none" d="M 24.018736134675446,6.953439040707552 L 24.277555179777966,5.987513214418485 A 181.94387396824558 181.94387396824558 0 0 0 59.56978868850988,11.80416176309572 L 59.504942832715685,12.802057055692245 A 182.94387396824558 182.94387396824558 0 0 1 24.018736134675446,6.953439040707552 Z M 78.88342659090834,13.032670343088938 L 78.84234660541662,12.033514481978159 A 181.94387396824558 181.94387396824558 0 0 0 114.26300748766612,7.058383424572451 L 113.5557303755058,4.142948793747371 L 121.18356781161802,5.893975934669238 L 115.2060436372132,10.945629599005892 L 114.49876652505289,8.030194968180812 A 182.94387396824558 182.94387396824558 0 0 1 78.88342659090834,13.032670343088938"/><text text-anchor="middle" pointer-events="none" font-size="8px" fill="#000000" x="69.19707868196484" y="15.674182769808311" transform="rotate(180 69.19707868196484 12.674182769808311)" font-family="sans-serif">trek</text></g><g class="relationship" transform="translate(22.523418267706568 -40.97876257910972) rotate(353.75982368546784)"><path class="outline" fill="#A5ABB6" stroke="none" d="M 25 0.5 L 30.02936327745202 0.5 L 30.02936327745202 -0.5 L 25 -0.5 Z M 49.36530077745202 0.5 L 54.39466405490404 0.5 L 54.39466405490404 3.5 L 61.39466405490404 0 L 54.39466405490404 -3.5 L 54.39466405490404 -0.5 L 49.36530077745202 -0.5 Z"/><text text-anchor="middle" pointer-events="none" font-size="8px" fill="#000000" x="39.69733202745202" y="3" font-family="sans-serif">trek</text></g><g class="relationship" transform="translate(22.523418267706568 -40.97876257910972) rotate(353.75982368546784)"><path class="outline" fill="#A5ABB6" stroke="none" d="M 21.40063509461097,-12.933012701892217 L 21.90063509461097,-12.06698729810778 A 37.97505308775589 37.97505308775589 0 0 1 28.802373177713754,-15.180159586481999 L 28.484117178628082,-16.128164396093204 A 38.97505308775589 38.97505308775589 0 0 0 21.40063509461097,-12.933012701892217 Z M 50.463298315099195,-16.96019729287257 L 50.21762484147875,-15.990844650972186 A 37.97505308775589 37.97505308775589 0 0 1 57.334974415266544,-13.408371938753294 L 56.0356888496529,-10.704327371999995 L 63.86095933195985,-10.827379713447016 L 59.067355169418065,-17.01376469442436 L 57.76806960380442,-14.30972012767106 A 38.97505308775589 38.97505308775589 0 0 0 50.463298315099195,-16.96019729287257"/><text text-anchor="middle" pointer-events="none" font-size="8px" fill="#000000" x="39.43271174191577" y="-14.627141172264068" font-family="sans-serif">road</text></g><g class="relationship" transform="translate(108.40619302683972 -50.36955470926195) rotate(425.74143913073283)"><path class="outline" fill="#A5ABB6" stroke="none" d="M 25 0.5 L 29.17286324059286 0.5 L 29.17286324059286 -0.5 L 25 -0.5 Z M 48.50880074059286 0.5 L 52.68166398118572 0.5 L 52.68166398118572 3.5 L 59.68166398118572 0 L 52.68166398118572 -3.5 L 52.68166398118572 -0.5 L 48.50880074059286 -0.5 Z"/><text text-anchor="middle" pointer-events="none" font-size="8px" fill="#000000" x="38.84083199059286" y="3" font-family="sans-serif">trek</text></g><g class="relationship" transform="translate(8.757646263031068 55.622260011707986) rotate(474.9736450506793)"><path class="outline" fill="#A5ABB6" stroke="none" d="M 24.018736134675446,-6.953439040707552 L 24.277555179777966,-5.987513214418485 A 144.15146888537632 144.15146888537632 0 0 1 36.599297621857446,-8.717163721200933 L 36.425956321361724,-9.702025535641127 A 145.15146888537632 145.15146888537632 0 0 0 24.018736134675446,-6.953439040707552 Z M 82.84691322092283,-10.333931397589595 L 82.70044406923347,-9.344716159330801 A 144.15146888537632 144.15146888537632 0 0 1 95.09192194321257,-6.951474676152312 L 94.39462995939579,-4.033635768792131 L 102.01642805768913,-5.810766531806515 L 96.02164458830163,-10.841926552632554 L 95.32435260448484,-7.9240876452723725 A 145.15146888537632 145.15146888537632 0 0 0 82.84691322092283,-10.333931397589595"/><text text-anchor="middle" pointer-events="none" font-size="8px" fill="#000000" x="59.61781316958649" y="-8.385955273408086" transform="rotate(180 59.61781316958649 -11.385955273408086)" font-family="sans-serif">twowheeler</text></g><g class="relationship" transform="translate(-44.579787953524274 170.14225715966344) rotate(353.23802004760637)"><path class="outline" fill="#A5ABB6" stroke="none" d="M 21.40063509461097,12.933012701892217 L 21.90063509461097,12.06698729810778 A 51.15289740847915 51.15289740847915 0 0 0 35.00118191044048,17.375451231338097 L 34.7572875756038,18.345253042758642 A 52.15289740847915 52.15289740847915 0 0 1 21.40063509461097,12.933012701892217 Z M 56.80205975470686,19.079748217157643 L 56.62325902801243,18.09586290873316 A 51.15289740847915 51.15289740847915 0 0 0 70.04809809673101,13.671180752560206 L 68.72435992501178,10.97902227789096 L 76.55042423291245,11.031151430993551 L 71.81308232568998,17.260725385452535 L 70.48934415397075,14.568566910783288 A 52.15289740847915 52.15289740847915 0 0 1 56.80205975470686,19.079748217157643"/><text text-anchor="middle" pointer-events="none" font-size="8px" fill="#000000" x="45.757049545631254" y="22.391529680174962" font-family="sans-serif">road</text></g><g class="relationship" transform="translate(-44.579787953524274 170.14225715966344) rotate(353.23802004760637)"><path class="outline" fill="#A5ABB6" stroke="none" d="M 25 0.5 L 36.32457034424475 0.5 L 36.32457034424475 -0.5 L 25 -0.5 Z M 55.66050784424475 0.5 L 66.9850781884895 0.5 L 66.9850781884895 3.5 L 73.9850781884895 0 L 66.9850781884895 -3.5 L 66.9850781884895 -0.5 L 55.66050784424475 -0.5 Z"/><text text-anchor="middle" pointer-events="none" font-size="8px" fill="#000000" x="45.99253909424475" y="3" font-family="sans-serif">trek</text></g><g class="relationship" transform="translate(-44.579787953524274 170.14225715966344) rotate(353.23802004760637)"><path class="outline" fill="#A5ABB6" stroke="none" d="M 21.40063509461097,-12.933012701892217 L 21.90063509461097,-12.06698729810778 A 51.15289740847915 51.15289740847915 0 0 1 23.715849884683877,-13.06653557033421 L 23.251335944751553,-13.952101377944544 A 52.15289740847915 52.15289740847915 0 0 0 21.40063509461097,-12.933012701892217 Z M 68.57491433700683,-15.462207690005378 L 68.17037630390561,-14.547686514868033 A 51.15289740847915 51.15289740847915 0 0 1 70.04809809673101,-13.671180752560206 L 68.72435992501178,-10.97902227789096 L 76.55042423291245,-11.031151430993551 L 71.81308232568998,-17.260725385452535 L 70.48934415397075,-14.568566910783288 A 52.15289740847915 52.15289740847915 0 0 0 68.57491433700683,-15.462207690005378"/><text text-anchor="middle" pointer-events="none" font-size="8px" fill="#000000" x="45.75704954563126" y="-16.391529680174962" font-family="sans-serif">twowheeler</text></g><g class="relationship" transform="translate(8.757646263031068 55.622260011707986) rotate(474.9736450506793)"><path class="outline" fill="#A5ABB6" stroke="none" d="M 24.018736134675446,6.953439040707552 L 24.277555179777966,5.987513214418485 A 144.15146888537632 144.15146888537632 0 0 0 50.002512284399195,10.43314171536585 L 49.922151060805774,11.429907522234515 A 145.15146888537632 145.15146888537632 0 0 1 24.018736134675446,6.953439040707552 Z M 69.3086863426016,11.693806978549958 L 69.25548684214128,10.695223074638648 A 144.15146888537632 144.15146888537632 0 0 0 95.09192194321257,6.951474676152312 L 94.39462995939579,4.033635768792131 L 102.01642805768913,5.810766531806515 L 96.02164458830163,10.841926552632554 L 95.32435260448484,7.9240876452723725 A 145.15146888537632 145.15146888537632 0 0 1 69.3086863426016,11.693806978549958"/><text text-anchor="middle" pointer-events="none" font-size="8px" fill="#000000" x="59.61781316958648" y="14.385955273408086" transform="rotate(180 59.61781316958648 11.385955273408086)" font-family="sans-serif">trek</text></g><g class="relationship" transform="translate(-44.579787953524274 170.14225715966344) rotate(396.62052466240186)"><path class="outline" fill="#A5ABB6" stroke="none" d="M 25 0.5 L 50.863197071621954 0.5 L 50.863197071621954 -0.5 L 25 -0.5 Z M 70.19913457162195 0.5 L 96.06233164324391 0.5 L 96.06233164324391 3.5 L 103.06233164324391 0 L 96.06233164324391 -3.5 L 96.06233164324391 -0.5 L 70.19913457162195 -0.5 Z"/><text text-anchor="middle" pointer-events="none" font-size="8px" fill="#000000" x="60.531165821621954" y="3" font-family="sans-serif">trek</text></g><g class="relationship" transform="translate(58.20353147208594 246.53302907458237) rotate(325.92394149755006)"><path class="outline" fill="#A5ABB6" stroke="none" d="M 25 0.5 L 50.557597164659455 0.5 L 50.557597164659455 -0.5 L 25 -0.5 Z M 69.89353466465946 0.5 L 95.45113182931891 0.5 L 95.45113182931891 3.5 L 102.45113182931891 0 L 95.45113182931891 -3.5 L 95.45113182931891 -0.5 L 69.89353466465946 -0.5 Z"/><text text-anchor="middle" pointer-events="none" font-size="8px" fill="#000000" x="60.225565914659455" y="3" font-family="sans-serif">trek</text></g></g><g class="layer nodes"><g class="node" transform="translate(22.523418267706568,-40.97876257910972)"><circle class="outline" cx="0" cy="0" r="25" fill="#F16667" stroke="#eb2728" stroke-width="2px"/><text text-anchor="middle" pointer-events="none" font-family="sans-serif" dy="1.5625" font-size="25" fill="#FFFFFF"/><text text-anchor="middle" pointer-events="none" x="0" y="5" font-size="10px" fill="#FFFFFF" font-family="sans-serif"> Darjeeling</text></g><g class="node" transform="translate(163.7706067819125,175.12306047702705)"><circle class="outline" cx="0" cy="0" r="25" fill="#D9C8AE" stroke="#c0a378" stroke-width="2px"/><text text-anchor="middle" pointer-events="none" font-family="sans-serif" dy="1.5625" font-size="25" fill="#2A2C34"/><text text-anchor="middle" pointer-events="none" x="0" y="5" font-size="10px" fill="#2A2C34" font-family="sans-serif"> Sandak…</text></g><g class="node" transform="translate(143.1980847952435,26.8347747146643)"><circle class="outline" cx="0" cy="0" r="25" fill="#8DCC93" stroke="#5db665" stroke-width="2px"/><text text-anchor="middle" pointer-events="none" font-family="sans-serif" dy="1.5625" font-size="25" fill="#2A2C34"/><text text-anchor="middle" pointer-events="none" x="0" y="5" font-size="10px" fill="#2A2C34" font-family="sans-serif"> Tumbling</text></g><g class="node" transform="translate(277.3091231316688,73.52403044385592)"><circle class="outline" cx="0" cy="0" r="25" fill="#8DCC93" stroke="#5db665" stroke-width="2px"/><text text-anchor="middle" pointer-events="none" font-family="sans-serif" dy="1.5625" font-size="25" fill="#2A2C34"/><text text-anchor="middle" pointer-events="none" x="0" y="5" font-size="10px" fill="#2A2C34" font-family="sans-serif"> Gairibus</text></g><g class="node" transform="translate(201.42675279943523,40.6523448565081)"><circle class="outline" cx="0" cy="0" r="25" fill="#8DCC93" stroke="#5db665" stroke-width="2px"/><text text-anchor="middle" pointer-events="none" font-family="sans-serif" dy="1.5625" font-size="25" fill="#2A2C34"/><text text-anchor="middle" pointer-events="none" x="0" y="5" font-size="10px" fill="#2A2C34" font-family="sans-serif"> BhikeBh…</text></g><g class="node" transform="translate(108.40619302683972,-50.36955470926195)"><circle class="outline" cx="0" cy="0" r="25" fill="#F16667" stroke="#eb2728" stroke-width="2px"/><text text-anchor="middle" pointer-events="none" font-family="sans-serif" dy="1.5625" font-size="25" fill="#FFFFFF"/><text text-anchor="middle" pointer-events="none" x="0" y="5" font-size="10px" fill="#FFFFFF" font-family="sans-serif"> Rimbik</text></g><g class="node" transform="translate(8.757646263031068,55.622260011707986)"><circle class="outline" cx="0" cy="0" r="25" fill="#8DCC93" stroke="#5db665" stroke-width="2px"/><text text-anchor="middle" pointer-events="none" font-family="sans-serif" dy="1.5625" font-size="25" fill="#2A2C34"/><text text-anchor="middle" pointer-events="none" x="0" y="5" font-size="10px" fill="#2A2C34" font-family="sans-serif"> Sirikhola</text></g><g class="node" transform="translate(53.716736113624144,158.4872556453826)"><circle class="outline" cx="0" cy="0" r="25" fill="#8DCC93" stroke="#5db665" stroke-width="2px"/><text text-anchor="middle" pointer-events="none" font-family="sans-serif" dy="1.5625" font-size="25" fill="#2A2C34"/><text text-anchor="middle" pointer-events="none" x="0" y="5" font-size="10px" fill="#2A2C34" font-family="sans-serif"> Gurdum</text></g><g class="node" transform="translate(-44.579787953524274,170.14225715966344)"><circle class="outline" cx="0" cy="0" r="25" fill="#8DCC93" stroke="#5db665" stroke-width="2px"/><text text-anchor="middle" pointer-events="none" font-family="sans-serif" dy="1.5625" font-size="25" fill="#2A2C34"/><text text-anchor="middle" pointer-events="none" x="0" y="5" font-size="10px" fill="#2A2C34" font-family="sans-serif"> Rammam</text></g><g class="node" transform="translate(58.20353147208594,246.53302907458237)"><circle class="outline" cx="0" cy="0" r="25" fill="#D9C8AE" stroke="#c0a378" stroke-width="2px"/><text text-anchor="middle" pointer-events="none" font-family="sans-serif" dy="1.5625" font-size="25" fill="#2A2C34"/><text text-anchor="middle" pointer-events="none" x="0" y="5" font-size="10px" fill="#2A2C34" font-family="sans-serif"> Sabargr…</text></g></g></svg>